# xmcd
#
# Track frame offsets: 
#        150
#        3396
#        19285
#        47037
#        63365
#        79560
#        107953
#        155746
#        179284
#        195647
#        205301
#        223092
#        241440
#        261585
#
# Disc length: 3799 seconds
#
# Revision: 0
# Processed by: cddbd v1.5.2PL0 Copyright (c) Steve Scherf et al.
# Submitted via: ExactAudioCopy v0.99pb5
#
DISCID=cb0ed50e
DTITLE=Janis Joplin  - Blow My Blues Away CD 9
DYEAR=1900
DGENRE=
TTITLE0=Dick Cavett Introduction
TTITLE1=To Love Somebody
TTITLE2=Interview
TTITLE3=Little Girl Blue
TTITLE4=Raise Your Hand
TTITLE5=Kozmic Blues
TTITLE6=Ego Rock
TTITLE7=Help Me Baby
TTITLE8=One Night Stand
TTITLE9=Mercedes Benz
TTITLE10=Try
TTITLE11=My Baby
TTITLE12=My Baby
TTITLE13=Sunday Mornin' Comin' Down
EXTD=
EXTT0=
EXTT1=
EXTT2=
EXTT3=
EXTT4=
EXTT5=
EXTT6=
EXTT7=
EXTT8=
EXTT9=
EXTT10=
EXTT11=
EXTT12=
EXTT13=
PLAYORDER=
